<svg width="124" height="36" viewBox="0 0 124 36" fill="none" xmlns="http://www.w3.org/2000/svg">
<path d="M0.36 0.727998V35H5.592V19.64H23.544V35H28.776V0.727998H23.544V15.176H5.592V0.727998H0.36ZM45.5483 9.512C41.9003 9.512 38.9723 10.76 36.8603 13.304C34.6523 15.8 33.5963 18.872 33.5963 22.568C33.5963 26.648 34.7483 29.864 37.0523 32.264C39.1643 34.52 42.0923 35.672 45.7403 35.672C49.0523 35.672 51.7883 34.712 53.9483 32.84C55.6763 31.304 56.7803 29.336 57.3563 27.032H52.2683C51.5963 28.472 50.8763 29.576 50.0123 30.248C48.9083 31.064 47.4683 31.496 45.6923 31.496C43.6763 31.496 42.0923 30.824 40.9403 29.576C39.7883 28.28 39.1643 26.408 38.9723 24.008H57.7883C57.7403 19.592 56.7323 16.136 54.8123 13.64C52.7003 10.856 49.5803 9.512 45.5483 9.512ZM45.6923 13.688C49.7243 13.688 51.9803 15.848 52.4603 20.168H39.0683C39.3563 18.056 40.0763 16.472 41.1323 15.368C42.2843 14.216 43.7723 13.688 45.6923 13.688ZM62.706 0.0559978V35H67.794V0.0559978H62.706ZM74.706 0.0559978V35H79.794V0.0559978H74.706ZM97.554 9.512C93.81 9.512 90.786 10.76 88.53 13.256C86.274 15.704 85.17 18.824 85.17 22.616C85.17 26.36 86.274 29.48 88.482 31.88C90.786 34.376 93.81 35.672 97.554 35.672C101.298 35.672 104.322 34.376 106.626 31.88C108.834 29.48 109.938 26.36 109.938 22.616C109.938 18.824 108.786 15.704 106.578 13.256C104.322 10.76 101.298 9.512 97.554 9.512ZM97.554 13.688C99.906 13.688 101.73 14.6 103.074 16.472C104.226 18.056 104.802 20.12 104.802 22.616C104.802 25.064 104.226 27.08 103.074 28.712C101.73 30.536 99.906 31.496 97.554 31.496C95.202 31.496 93.378 30.536 92.082 28.712C90.93 27.128 90.402 25.112 90.402 22.616C90.402 20.12 90.93 18.056 92.082 16.472C93.378 14.6 95.202 13.688 97.554 13.688ZM116.883 0.727998L117.987 25.304H121.779L122.883 0.727998H116.883ZM119.859 28.136C118.899 28.136 118.083 28.424 117.411 29.096C116.691 29.72 116.355 30.536 116.355 31.544C116.355 32.504 116.691 33.32 117.411 33.992C118.083 34.664 118.899 35 119.859 35C120.819 35 121.683 34.664 122.403 34.04C123.075 33.368 123.411 32.552 123.411 31.544C123.411 30.536 123.075 29.72 122.403 29.096C121.731 28.424 120.867 28.136 119.859 28.136Z" fill="#1877F2"/>
</svg>
