<svg width="296" height="149" viewBox="0 0 296 149" fill="none" xmlns="http://www.w3.org/2000/svg">
<g clip-path="url(#clip0_4_57)">
<path d="M267.415 121.194H42.3541C39.477 121.191 36.7186 120.048 34.6842 118.017C32.6498 115.985 31.5054 113.231 31.5022 110.358V25.0818C31.5054 22.2088 32.6498 19.4545 34.6842 17.423C36.7187 15.3915 39.477 14.2488 42.3541 14.2456H267.415C270.292 14.2488 273.05 15.3915 275.084 17.423C277.119 19.4545 278.263 22.2088 278.267 25.0818V110.358C278.263 113.231 277.119 115.985 275.085 118.017C273.05 120.048 270.292 121.191 267.415 121.194Z" fill="white"/>
<path d="M267.415 121.194H42.3541C39.477 121.191 36.7186 120.048 34.6842 118.017C32.6498 115.985 31.5054 113.231 31.5022 110.358V25.0818C31.5054 22.2088 32.6498 19.4545 34.6842 17.423C36.7187 15.3915 39.477 14.2488 42.3541 14.2456H267.415C270.292 14.2488 273.05 15.3915 275.084 17.423C277.119 19.4545 278.263 22.2088 278.267 25.0818V110.358C278.263 113.231 277.119 115.985 275.085 118.017C273.05 120.048 270.292 121.191 267.415 121.194ZM42.3541 15.1878C39.7263 15.1878 37.2061 16.2302 35.3479 18.0857C33.4897 19.9412 32.4458 22.4577 32.4458 25.0818V110.358C32.4458 111.657 32.7021 112.944 33.2 114.144C33.698 115.344 34.4278 116.435 35.3479 117.354C36.268 118.273 37.3603 119.001 38.5624 119.499C39.7645 119.996 41.053 120.252 42.3541 120.252H267.415C268.716 120.252 270.004 119.996 271.206 119.499C272.408 119.001 273.501 118.273 274.421 117.354C275.341 116.435 276.071 115.344 276.569 114.144C277.067 112.944 277.323 111.657 277.323 110.358V78.2042C277.323 61.4912 270.674 45.4628 258.839 33.6449C247.004 21.8271 230.952 15.1878 214.215 15.1878H42.3541Z" fill="#E6E6E6"/>
<path d="M24.5463 139.348C24.6384 138.716 23.9758 138.097 23.0664 137.965C22.1571 137.833 21.3452 138.238 21.2532 138.87C21.1612 139.501 21.8237 140.12 22.7331 140.253C23.6425 140.385 24.4543 139.98 24.5463 139.348Z" fill="white"/>
<path d="M35.3734 138.293C35.4654 137.661 34.8028 137.042 33.8935 136.91C32.9841 136.778 32.1723 137.183 32.0803 137.815C31.9882 138.446 32.6508 139.065 33.5602 139.198C34.4695 139.33 35.2813 138.925 35.3734 138.293Z" fill="#3F3D56"/>
<path d="M21.5816 130.595C21.6736 129.964 21.0111 129.345 20.1017 129.212C19.1923 129.08 18.3805 129.485 18.2885 130.117C18.1964 130.749 18.859 131.368 19.7684 131.5C20.6778 131.632 21.4896 131.227 21.5816 130.595Z" fill="#FF6584"/>
<path d="M16.8769 127.01C16.8813 126.43 16.5574 125.958 16.1534 125.955C15.7494 125.952 15.4183 126.419 15.4139 126.999C15.4095 127.579 15.7335 128.052 16.1375 128.055C16.5415 128.058 16.8726 127.59 16.8769 127.01Z" fill="#E6E6E6"/>
<path d="M15.2815 120.332C15.2859 119.753 14.962 119.28 14.558 119.277C14.154 119.274 13.8229 119.741 13.8185 120.321C13.8141 120.901 14.1381 121.374 14.5421 121.377C14.9461 121.38 15.2771 120.912 15.2815 120.332Z" fill="#3F3D56"/>
<path d="M27.6881 132.085C27.6925 131.505 27.3686 131.032 26.9645 131.029C26.5605 131.026 26.2295 131.494 26.2251 132.074C26.2207 132.654 26.5446 133.126 26.9486 133.129C27.3526 133.132 27.6837 132.665 27.6881 132.085Z" fill="#E6E6E6"/>
<path d="M22.456 134.693C22.4604 134.113 22.1365 133.641 21.7325 133.638C21.3285 133.635 20.9974 134.102 20.993 134.682C20.9886 135.262 21.3126 135.735 21.7166 135.738C22.1206 135.741 22.4516 135.273 22.456 134.693Z" fill="#FF6584"/>
<path d="M29.7393 139.515C29.7437 138.935 29.4197 138.462 29.0157 138.459C28.6117 138.456 28.2806 138.924 28.2762 139.504C28.2718 140.083 28.5958 140.556 28.9998 140.559C29.4038 140.562 29.7349 140.095 29.7393 139.515Z" fill="#3F3D56"/>
<path d="M286.116 3.16696C286.316 2.37822 285.558 1.50591 284.422 1.21857C283.287 0.931237 282.204 1.33769 282.004 2.12643C281.804 2.91517 282.562 3.78751 283.697 4.07485C284.833 4.36218 285.915 3.9557 286.116 3.16696Z" fill="white"/>
<path d="M272.249 3.07774C272.449 2.289 271.691 1.41666 270.556 1.12932C269.42 0.841989 268.338 1.24847 268.137 2.03721C267.937 2.82595 268.695 3.69826 269.831 3.9856C270.966 4.27293 272.049 3.86647 272.249 3.07774Z" fill="#3F3D56"/>
<path d="M288.718 14.6544C288.918 13.8657 288.16 12.9934 287.024 12.706C285.889 12.4187 284.806 12.8252 284.606 13.6139C284.406 14.4026 285.164 15.275 286.299 15.5623C287.435 15.8497 288.518 15.4432 288.718 14.6544Z" fill="#FF6584"/>
<path d="M291.95 18.9861C292.032 18.2514 291.684 17.6096 291.172 17.5525C290.66 17.4954 290.179 18.0446 290.097 18.7793C290.014 19.5139 290.363 20.1558 290.874 20.2129C291.386 20.27 291.868 19.7207 291.95 18.9861Z" fill="#E6E6E6"/>
<path d="M293.092 27.6611C293.174 26.9265 292.826 26.2846 292.314 26.2275C291.802 26.1704 291.321 26.7197 291.239 27.4543C291.156 28.189 291.505 28.8308 292.017 28.8879C292.528 28.945 293.01 28.3958 293.092 27.6611Z" fill="#3F3D56"/>
<path d="M278.914 11.1276C278.996 10.393 278.648 9.75114 278.136 9.69403C277.624 9.63693 277.143 10.1862 277.061 10.9208C276.978 11.6555 277.327 12.2973 277.838 12.3544C278.35 12.4115 278.832 11.8623 278.914 11.1276Z" fill="#E6E6E6"/>
<path d="M285.892 8.50991C285.974 7.77526 285.626 7.13342 285.114 7.07631C284.602 7.01921 284.121 7.56846 284.039 8.30312C283.957 9.03777 284.305 9.67961 284.817 9.73671C285.328 9.79382 285.81 9.24456 285.892 8.50991Z" fill="#FF6584"/>
<path d="M277.295 1.43767C277.378 0.703024 277.029 0.0611818 276.518 0.00407695C276.006 -0.053028 275.524 0.496229 275.442 1.23088C275.36 1.96553 275.708 2.60737 276.22 2.66448C276.732 2.72158 277.213 2.17233 277.295 1.43767Z" fill="#3F3D56"/>
<path d="M121.522 65.9844C121.534 74.5185 118.377 82.754 112.661 89.0984V89.1032C111.853 90.0004 110.999 90.8559 110.104 91.6661C109.187 92.4949 108.227 93.2735 107.226 93.9983C106.527 94.5071 105.81 94.9877 105.074 95.44C104.201 95.9818 103.303 96.4827 102.38 96.9429C101.696 97.2868 100.998 97.6072 100.285 97.904C96.0324 99.6887 91.4653 100.607 86.8523 100.604C84.247 100.607 81.6497 100.316 79.1097 99.7368C77.935 99.4701 76.7757 99.1398 75.637 98.7473C75.1982 98.6013 74.7594 98.4411 74.3253 98.2715C71.6933 97.2556 69.1973 95.9184 66.8941 94.2904C62.0259 90.8679 58.1225 86.2511 55.5598 80.885C52.9971 75.5189 51.8615 69.5841 52.2624 63.6526C52.6634 57.721 54.5873 51.9925 57.8489 47.0189C61.1105 42.0453 65.5998 37.9942 70.8844 35.2559C76.169 32.5176 82.0708 31.1845 88.0211 31.3848C93.9715 31.5851 99.7699 33.3122 104.858 36.3997C109.946 39.4872 114.152 43.831 117.07 49.0127C119.989 54.1944 121.522 60.0393 121.522 65.9844V65.9844Z" fill="#F2F2F2"/>
<path d="M78.9226 50.322C79.4253 54.3718 82.2355 57.7109 86.3223 57.7109C88.2848 57.7109 90.1669 56.9324 91.5547 55.5467C92.9424 54.161 93.722 52.2816 93.722 50.322C93.722 46.2412 90.3915 43.3103 86.3223 42.933C82.0046 42.5327 78.2772 45.1225 78.9226 50.322Z" fill="#2F2E41"/>
<path d="M92.7642 100.1C88.2332 100.877 83.5929 100.754 79.1096 99.7368C81.2376 98.5636 87.6921 99.2845 92.7642 100.1Z" fill="#2F2E41"/>
<path d="M63.9637 113.096L67.5182 104.519L70.3187 106.072L68.6274 114.798C68.7968 115.351 68.8084 115.94 68.661 116.499C68.5135 117.058 68.2128 117.565 67.7926 117.962C67.3725 118.36 66.8495 118.633 66.2826 118.75C65.7157 118.867 65.1273 118.824 64.5836 118.626C64.0398 118.427 63.5622 118.082 63.2045 117.627C62.8469 117.172 62.6233 116.627 62.5589 116.053C62.4945 115.478 62.5918 114.897 62.84 114.375C63.0882 113.853 63.4773 113.41 63.9637 113.096Z" fill="#FFB6B6"/>
<path d="M132.633 64.827L123.612 67.0515L123.206 63.8767L131.245 60.0651C131.59 59.6011 132.058 59.2425 132.596 59.0298C133.135 58.8171 133.721 58.7586 134.291 58.861C134.86 58.9633 135.39 59.2224 135.82 59.6092C136.25 59.9959 136.564 60.4949 136.726 61.0501C136.888 61.6054 136.892 62.1947 136.737 62.7521C136.582 63.3094 136.275 63.8125 135.849 64.205C135.424 64.5974 134.898 64.8635 134.33 64.9733C133.762 65.0832 133.174 65.0326 132.633 64.827Z" fill="#FFB6B6"/>
<path d="M100.733 89.8853V89.89C100.606 92.877 100.431 95.718 100.285 97.904C96.0324 99.6887 91.4653 100.607 86.8523 100.604C84.247 100.607 81.6496 100.316 79.1096 99.7368C77.935 99.4701 76.7757 99.1398 75.637 98.7474C75.7955 98.6452 75.9669 98.5644 76.1466 98.5071C77.8451 97.9323 76.1654 97.4094 76.1796 96.8628C76.2315 94.8652 76.7835 92.4671 77.496 90.1679L74.3253 98.2715L72.6739 102.484C72.6739 102.484 72.7305 106.121 71.6831 105.009C70.6309 103.897 70.7064 107.496 70.7064 107.496C70.3794 107.729 70.0979 108.02 69.876 108.354C69.7826 108.504 69.7474 108.684 69.7769 108.858V108.863C69.8243 109 69.9177 109.116 70.0411 109.193C70.7536 109.673 69.7297 110.945 69.2768 111.449C69.1541 111.586 69.0739 111.666 69.0739 111.666L64.7189 111.355V111.27C64.7378 110.757 64.8558 108.052 65.5305 107.407C66.2713 106.695 65.9079 105.569 65.9079 105.569C65.9079 105.569 67.8424 103.859 66.5449 102.469C66.0259 101.909 66.2571 98.5872 66.894 94.2904C68.2859 84.8111 71.6218 70.5827 73.0655 70.7853C73.363 69.3421 74.054 68.0091 75.0623 66.9333C76.0706 65.8575 77.3569 65.0807 78.7793 64.6888L83.4834 63.3979L84.3232 60.0857H90.9477L92.0989 62.2624L96.9257 64.4391L96.9871 64.4673L97.138 64.5333L97.1946 64.7123C97.1946 64.7123 97.1899 64.717 97.1946 64.717L99.8793 73.1363C101.087 74.5214 101.04 82.6156 100.733 89.8853Z" fill="#1877F2"/>
<path d="M87.6615 68.3929C89.2521 67.9934 94.7005 61.9043 97.947 64.0814C97.947 64.0814 120.427 63.0088 120.523 62.1123C120.619 61.2158 122.983 60.9487 122.983 60.9487C122.983 60.9487 124.33 61.5049 123.893 60.813C123.457 60.1211 124.943 60.6566 124.943 60.6566C124.943 60.6566 126.216 61.273 126.034 60.4941C125.852 59.7151 128.18 61.2985 128.18 61.2985L129.011 65.9091L127.644 66.377C127.644 66.377 126.881 67.9548 126.84 67.1053C126.799 66.2558 125.547 67.5477 125.547 67.5477C125.547 67.5477 124.042 68.8468 122.313 68.1467C120.584 67.4467 115.904 70.8481 115.904 70.8481C109.208 72.2547 102.716 72.2673 96.4734 70.5899L87.6615 68.3929Z" fill="#1877F2"/>
<path d="M87.1402 58.1496C90.7642 58.1496 93.702 55.2161 93.702 51.5975C93.702 47.9788 90.7642 45.0453 87.1402 45.0453C83.5163 45.0453 80.5785 47.9788 80.5785 51.5975C80.5785 55.2161 83.5163 58.1496 87.1402 58.1496Z" fill="#FFB6B6"/>
<path d="M80.3456 52.3113C80.5533 53.7351 81.7686 55.7216 81.484 55.7216C81.1994 55.7216 79.1759 49.8521 81.1994 49.4694C82.6672 49.1918 82.9953 49.4353 84.3671 48.8413L84.1735 49.0232C85.0814 49.6825 86.345 49.2762 87.381 48.847C88.4198 48.4207 89.6806 48.0144 90.5913 48.6708C91.1634 49.0829 91.4053 49.799 91.761 50.4072C92.1168 51.0182 92.7742 51.5951 93.4516 51.4076C93.7156 51.3057 93.9404 51.123 94.0938 50.8855C94.2472 50.6481 94.3213 50.3682 94.3054 50.0861C94.3025 49.5234 93.5688 48.9881 93.8159 48.4832C94.5482 46.9872 93.8896 45.9674 92.2933 45.2634C91.7127 45.1753 91.1321 45.0853 90.5515 44.9934C90.8557 44.5726 91.2245 44.2024 91.6444 43.8964C91.467 43.4423 91.1603 43.0501 90.7621 42.7682C90.2702 42.5399 89.7219 42.4608 89.1854 42.5409C87.9844 42.6034 86.7843 42.6659 85.5851 42.7284C84.6921 42.7125 83.8057 42.8849 82.9839 43.2343C81.9934 43.743 81.3446 44.7348 80.8721 45.7437C79.8134 48.0115 79.9813 49.836 80.3456 52.3113Z" fill="#2F2E41"/>
<path d="M259.176 97.1226C255.564 97.1226 252.07 95.8343 249.324 93.4898C248.408 92.7069 247.433 91.3459 246.424 89.4449C245.78 88.2203 245.42 86.8672 245.369 85.4852C245.318 84.1031 245.578 82.7273 246.13 81.4589C245.598 81.9993 245.009 82.4813 244.375 82.8966L244.054 83.1099L244.035 82.7256C244.023 82.4757 244.017 82.2266 244.017 81.9853C244.017 80.5631 245.094 79.12 244.597 77.8054C242.503 72.265 235.862 66.7589 245.487 58.1843C246.378 57.3911 245.188 55.8051 245.188 54.605C245.188 42.8437 261.835 22.4963 266.553 33.2752C272.372 46.5684 282.396 45.1465 286.837 47.8922L286.902 48.0865L286.712 48.1632C285.74 48.5711 284.716 48.8429 283.67 48.9711C284.786 49.1983 285.924 49.2935 287.062 49.2549L287.238 49.2487L287.281 49.42C287.705 51.1159 287.919 52.8572 287.918 54.605L287.918 54.794C287.914 56.1215 288.19 57.435 288.728 58.6488C289.267 59.8626 290.056 60.9494 291.043 61.8384C292.603 63.2584 293.849 64.9872 294.702 66.9147C295.556 68.8423 295.998 70.9262 296 73.0338C296 75.5271 294.303 78.8001 292.879 81.1067C292.518 81.6942 292.029 82.1926 291.448 82.5643C290.867 82.9361 290.209 83.1716 289.523 83.2532C288.874 83.3349 288.215 83.2732 287.592 83.0723C286.969 82.8715 286.399 82.5364 285.92 82.0909C286.594 83.4439 287.472 84.6853 288.524 85.7718L288.718 85.9717L288.477 86.112C286.159 87.4616 283.524 88.1722 280.841 88.1712L280.684 88.1708C278.716 88.1505 276.765 88.5225 274.943 89.2649C273.122 90.0073 271.467 91.1052 270.076 92.4943C268.659 93.9515 266.965 95.1115 265.093 95.9063C263.222 96.701 261.21 97.1146 259.176 97.1226Z" fill="#E6E6E6"/>
<path d="M253.961 121.095C253.895 121.095 253.832 121.071 253.782 121.028C253.733 120.985 253.7 120.926 253.691 120.861C252.978 114.513 252.936 108.108 253.564 101.751C254.505 91.7224 257.527 77.2782 266.579 65.4154C266.601 65.387 266.628 65.3631 266.659 65.3451C266.69 65.3271 266.724 65.3154 266.759 65.3106C266.795 65.3058 266.831 65.3081 266.866 65.3172C266.9 65.3264 266.933 65.3422 266.961 65.3639C266.99 65.3855 267.014 65.4126 267.032 65.4435C267.05 65.4744 267.061 65.5086 267.066 65.544C267.071 65.5794 267.069 65.6154 267.06 65.65C267.05 65.6846 267.034 65.717 267.013 65.7454C258.039 77.5058 255.041 91.844 254.107 101.801C253.482 108.116 253.524 114.478 254.231 120.784C254.236 120.823 254.234 120.862 254.223 120.899C254.211 120.937 254.192 120.971 254.167 121.001C254.141 121.03 254.11 121.054 254.074 121.07C254.038 121.086 254 121.095 253.961 121.095V121.095Z" fill="#3F3D56"/>
<path d="M261.348 82.1484C261.29 82.1485 261.234 82.1303 261.188 82.0965C261.141 82.0628 261.106 82.0151 261.088 81.9604C261.071 81.9058 261.071 81.8468 261.088 81.7921C261.106 81.7374 261.141 81.6898 261.187 81.656C263.767 79.9126 266.553 78.4962 269.483 77.4394C274.059 75.7663 281.019 74.2495 288.183 76.5265C288.217 76.5373 288.249 76.5548 288.276 76.5778C288.304 76.6009 288.326 76.6291 288.343 76.6608C288.359 76.6926 288.369 76.7272 288.372 76.7629C288.375 76.7985 288.371 76.8343 288.36 76.8684C288.349 76.9025 288.332 76.9341 288.309 76.9614C288.286 76.9887 288.258 77.0112 288.226 77.0276C288.194 77.0441 288.159 77.0541 288.124 77.0571C288.088 77.0601 288.052 77.0561 288.018 77.0452C281 74.8151 274.167 76.3068 269.67 77.9507C266.788 78.9894 264.046 80.382 261.508 82.0964C261.461 82.1302 261.405 82.1484 261.348 82.1484V82.1484Z" fill="#3F3D56"/>
<path d="M248.87 51.1166C248.866 51.0592 248.88 51.002 248.911 50.9531C248.941 50.9043 248.986 50.8663 249.039 50.8446C249.093 50.8229 249.152 50.8187 249.208 50.8324C249.263 50.8462 249.314 50.8773 249.351 50.9212C251.278 53.3646 252.893 56.0378 254.16 58.8792C256.161 63.3168 258.177 70.1388 256.418 77.4384C256.41 77.4732 256.395 77.5061 256.374 77.5351C256.353 77.5641 256.326 77.5887 256.296 77.6074C256.265 77.6262 256.231 77.6387 256.196 77.6443C256.161 77.6499 256.124 77.6485 256.089 77.6401C256.055 77.6318 256.022 77.6166 255.993 77.5955C255.964 77.5744 255.939 77.5478 255.92 77.5173C255.902 77.4867 255.889 77.4528 255.884 77.4174C255.878 77.382 255.88 77.3459 255.888 77.3111C257.611 70.1611 255.628 63.4629 253.663 59.1027C252.418 56.3069 250.829 53.6766 248.934 51.2722C248.897 51.2284 248.874 51.1738 248.87 51.1166V51.1166Z" fill="#3F3D56"/>
<path d="M25.9245 91.6764C24.5333 90.2873 22.8784 89.1894 21.0569 88.447C19.2353 87.7047 17.2837 87.3327 15.3164 87.353L15.1593 87.3534C12.4762 87.3544 9.84101 86.6438 7.5232 85.2942L7.28202 85.1539L7.47628 84.954C8.52796 83.8675 9.40612 82.626 10.08 81.2731C9.60139 81.7186 9.03057 82.0537 8.40793 82.2545C7.78528 82.4554 7.12603 82.5171 6.47684 82.4354C5.79146 82.3538 5.13348 82.1183 4.55225 81.7465C3.97102 81.3748 3.48163 80.8764 3.1208 80.2889C1.69709 77.9822 0 74.7093 0 72.2159C0.00221566 70.1084 0.444131 68.0245 1.29759 66.0969C2.15104 64.1694 3.39731 62.4406 4.95695 61.0206C5.94434 60.1316 6.73301 59.0448 7.27154 57.831C7.81008 56.6172 8.08637 55.3037 8.08244 53.9762L8.08165 53.7872C8.08138 52.0394 8.29528 50.2981 8.71858 48.6022L8.76155 48.4309L8.93802 48.4371C10.0759 48.4757 11.2145 48.3805 12.3301 48.1533C11.2836 48.0251 10.2599 47.7532 9.28798 47.3454L9.09815 47.2687L9.16257 47.0744C13.6036 44.3287 23.6282 45.7506 29.4467 32.4574C34.1648 21.6785 50.8118 42.0259 50.8118 53.7872C50.8118 54.9873 49.6224 56.5732 50.5127 57.3664C60.138 65.9411 53.4967 71.4472 51.4028 76.9876C50.906 78.3022 51.9832 79.7453 51.9832 81.1674C51.9832 81.4088 51.9771 81.6579 51.9649 81.9078L51.9464 82.2921L51.6254 82.0788C50.9905 81.6635 50.402 81.1815 49.87 80.6411C50.4219 81.9095 50.6821 83.2853 50.6312 84.6674C50.5804 86.0494 50.2198 87.4025 49.5761 88.6271C48.5674 90.5281 47.5916 91.8891 46.6757 92.672C43.7417 95.1791 39.9594 96.4724 36.1022 96.2873C32.245 96.1023 28.6043 94.4529 25.9245 91.6764H25.9245Z" fill="#E6E6E6"/>
<path d="M42.0392 120.277C42.1048 120.277 42.1682 120.253 42.2177 120.21C42.2672 120.167 42.2995 120.108 42.3088 120.043C43.0217 113.695 43.0643 107.29 42.436 100.933C41.495 90.9046 38.4731 76.4604 29.4209 64.5976C29.3992 64.5692 29.3721 64.5453 29.3411 64.5273C29.3102 64.5093 29.276 64.4976 29.2405 64.4928C29.205 64.488 29.169 64.4903 29.1343 64.4994C29.0997 64.5085 29.0673 64.5244 29.0388 64.5461C29.0103 64.5677 28.9864 64.5948 28.9684 64.6257C28.9504 64.6566 28.9386 64.6907 28.9338 64.7262C28.9291 64.7616 28.9313 64.7976 28.9405 64.8322C28.9496 64.8667 28.9655 64.8992 28.9872 64.9276C37.9613 76.6879 40.9587 91.0261 41.8931 100.984C42.518 107.298 42.4764 113.661 41.769 119.966C41.7635 120.005 41.7664 120.044 41.7775 120.082C41.7886 120.119 41.8075 120.154 41.8332 120.183C41.8588 120.213 41.8904 120.236 41.926 120.252C41.9615 120.269 42.0002 120.277 42.0392 120.277V120.277Z" fill="#3F3D56"/>
<path d="M34.652 81.3306C34.7096 81.3306 34.7658 81.3125 34.8124 81.2787C34.859 81.2449 34.8937 81.1973 34.9115 81.1426C34.9293 81.0879 34.9293 81.029 34.9116 80.9743C34.8938 80.9196 34.8591 80.872 34.8125 80.8381C32.2332 79.0947 29.4467 77.6784 26.5173 76.6216C21.9407 74.9485 14.9813 73.4317 7.81673 75.7087C7.78262 75.7195 7.75098 75.7369 7.72361 75.76C7.69625 75.783 7.67372 75.8112 7.65727 75.843C7.64083 75.8747 7.6308 75.9094 7.62777 75.945C7.62475 75.9807 7.62878 76.0165 7.63964 76.0506C7.6505 76.0846 7.66796 76.1162 7.69104 76.1436C7.71413 76.1709 7.74238 76.1934 7.77418 76.2098C7.80598 76.2262 7.8407 76.2362 7.87637 76.2393C7.91204 76.2423 7.94795 76.2383 7.98206 76.2274C14.9999 73.9973 21.8331 75.489 26.3299 77.1329C29.2122 78.1716 31.9539 79.5642 34.492 81.2786C34.5385 81.3124 34.5945 81.3306 34.652 81.3306V81.3306Z" fill="#3F3D56"/>
<path d="M47.1297 50.2987C47.1338 50.2414 47.1198 50.1842 47.0894 50.1353C47.059 50.0865 47.0139 50.0485 46.9606 50.0268C46.9072 50.0051 46.8484 50.0008 46.7925 50.0146C46.7366 50.0284 46.6865 50.0595 46.6493 50.1034C44.7222 52.5468 43.1068 55.22 41.8402 58.0614C39.8395 62.499 37.8232 69.321 39.5816 76.6206C39.5899 76.6554 39.605 76.6883 39.626 76.7173C39.6471 76.7463 39.6736 76.7709 39.7042 76.7896C39.7347 76.8084 39.7687 76.8209 39.8041 76.8265C39.8395 76.8321 39.8757 76.8307 39.9106 76.8223C39.9454 76.814 39.9783 76.7988 40.0073 76.7777C40.0363 76.7566 40.0608 76.73 40.0795 76.6995C40.0982 76.6689 40.1107 76.6349 40.1162 76.5996C40.1217 76.5642 40.1202 76.5281 40.1117 76.4933C38.3895 69.3433 40.3716 62.6451 42.3375 58.2849C43.5825 55.4891 45.1709 52.8587 47.0662 50.4544C47.1033 50.4105 47.1255 50.356 47.1297 50.2987Z" fill="#3F3D56"/>
</g>
<path d="M201.299 105.677H172.129C162.623 105.677 154.824 97.8784 154.824 88.3723V51.4264C154.824 41.9203 162.623 34.1221 172.129 34.1221H201.276C210.805 34.1221 218.581 41.9203 218.581 51.4264V88.3723C218.603 97.8784 210.805 105.677 201.299 105.677Z" fill="#1877F2"/>
<rect width="47.4183" height="47.4183" transform="translate(162.892 46.0329)" fill="#1877F2"/>
<path d="M206.79 69.522C206.79 58.359 197.741 49.3097 186.578 49.3097C175.415 49.3097 166.366 58.359 166.366 69.522C166.366 79.6105 173.757 87.9724 183.42 89.4888V75.3646H178.288V69.522H183.42V65.069C183.42 60.0033 186.437 57.2051 191.054 57.2051C193.266 57.2051 195.579 57.5999 195.579 57.5999V62.574H193.03C190.519 62.574 189.736 64.1321 189.736 65.7305V69.522H195.342L194.446 75.3646H189.736V89.4888C199.399 87.9724 206.79 79.6105 206.79 69.522Z" fill="white"/>
<defs>
<clipPath id="clip0_4_57">
<rect width="296" height="149" fill="white"/>
</clipPath>
</defs>
</svg>
