<?xml version="1.0" encoding="UTF-8"?>
<svg width="30px" height="30px" viewBox="0 0 30 30" version="1.1" xmlns="http://www.w3.org/2000/svg" xmlns:xlink="http://www.w3.org/1999/xlink">
    <title>54240011-8031-409E-9071-466CD825AFE6</title>
    <g id="Type2" stroke="none" stroke-width="1" fill="none" fill-rule="evenodd">
        <g id="Type2_字體16px_01_初始狀態" transform="translate(-172.000000, -107.000000)" fill="#0065AC" fill-rule="nonzero">
            <g id="icon/30/cht-logo" transform="translate(172.000000, 107.000000)">
                <path d="M5.1048,14.3336 L1,14.3336 C1,14.552 1,14.7816 1,15 C1,15.2184 1,15.4424 1,15.6664 L5.3624,15.6664 C5.24492817,15.228829 5.15884272,14.7834304 5.1048,14.3336 L5.1048,14.3336 Z M5.7992,9.0024 L2.344,9.0024 C2.1424,9.4336 1.9632,9.876 1.784,10.3352 L5.3624,10.3352 C5.47585149,9.8810338 5.62182824,9.43561754 5.7992,9.0024 L5.7992,9.0024 Z M5.0264,13.0008 C5.02690627,12.5553961 5.05308301,12.1103915 5.1048,11.668 L1.3976,11.668 C1.29049965,12.1075864 1.20638553,12.5524566 1.1456,13.0008 L5.0264,13.0008 Z M5.7992,16.9992 L1.1456,16.9992 C1.20541627,17.4569467 1.28953507,17.9111882 1.3976,18.36 L6.4376,18.36 C6.18580274,17.9329454 5.96677397,17.4873997 5.7824,17.0272 L5.7992,16.9992 Z M7.3616,19.6648 L1.8008,19.6648 C1.9632,20.124 2.1424,20.5664 2.3608,21.0032 L8.6384,21.0032 C8.17624701,20.5934262 7.74915977,20.1457339 7.3616,19.6648 L7.3616,19.6648 Z M29,15 C29,14.7816 29,14.552 29,14.3336 L24.156,14.3336 C23.9670309,13.8754607 23.7481593,13.4302348 23.5008,13.0008 L28.8544,13.0008 C28.7917471,12.5523596 28.7057638,12.1074895 28.5968,11.668 L22.5824,11.668 C22.1976858,11.186294 21.7703588,10.7402246 21.3056,10.3352 L28.2048,10.3352 C28.0423625,9.88113729 27.8554214,9.43621739 27.6448,9.0024 L12.2952,9.0024 L12.2952,15.6664 L17.688,15.6664 L17.688,22.336 L3.072,22.336 C3.35739133,22.7963868 3.66966597,23.2395551 4.0072,23.6632 L12.2896,23.6632 L12.2896,25.0016 L5.2056,25.0016 C5.69660144,25.4844861 6.2246108,25.9282386 6.7848,26.3288 L12.2896,26.3288 L12.2896,27.6672 L9.0304,27.6672 C12.8117024,29.4445037 17.1882976,29.4445037 20.9696,27.6672 L19.48,27.6672 C20.1525939,27.2913253 20.7817235,26.8424836 21.356,26.3288 L23.2376,26.3288 C23.7959972,25.9281849 24.3221412,25.4844265 24.8112,25.0016 L22.6048,25.0016 C22.9414081,24.5784044 23.2464946,24.1310689 23.5176,23.6632 L25.9928,23.6632 C26.330334,23.2395551 26.6426087,22.7963868 26.928,22.336 L24.1616,22.336 C24.3373349,21.9021818 24.4832736,21.4568815 24.5984,21.0032 L27.6504,21.0032 C27.8600733,20.5670452 28.0469909,20.1203122 28.2104,19.6648 L24.8504,19.6648 C24.9035585,19.2318523 24.9316054,18.79619 24.9344,18.36 L24.9344,18.36 L28.5968,18.36 C28.7057638,17.9205105 28.7917471,17.4756404 28.8544,17.0272 L24.8504,17.0272 C24.7904658,16.5783115 24.7044537,16.1332923 24.5928,15.6944 L29,15.6944 C29,15.4704 29,15.252 29,15.028 L29,15 Z M17.688,4.9984 L24.7944,4.9984 C24.303973,4.5153648 23.7779603,4.06984514 23.2208,3.6656 L17.688,3.6656 L17.688,4.9984 Z M7.3616,6.3312 L4.0016,6.3312 C3.66723921,6.75787079 3.35689231,7.20282598 3.072,7.664 L6.432,7.664 C6.70448272,7.1987806 7.00950955,6.75340402 7.3448,6.3312 L7.3616,6.3312 Z M17.688,7.664 L26.928,7.664 C26.6412939,7.20402008 26.3310136,6.75916044 25.9984,6.3312 L17.688,6.3312 L17.688,7.664 Z M10.52,3.6656 L6.7792,3.6656 C6.22092155,4.06841779 5.69480318,4.51402695 5.2056,4.9984 L8.6384,4.9984 C9.21519034,4.48693481 9.84613362,4.04001665 10.52,3.6656 L10.52,3.6656 Z M15,1 C12.9366432,0.997086452 10.8981504,1.45029733 9.0304,2.3272 L20.9696,2.3272 C19.1018496,1.45029733 17.0633568,0.997086452 15,1 Z" id="path1_fill"></path>
            </g>
        </g>
    </g>
</svg>